<svg xmlns="http://www.w3.org/2000/svg" width="620" height="400" style="background:#1a1f2e; font-family: system-ui, -apple-system, sans-serif; border-radius:10px;">
  <!-- Title -->
  <text x="310" y="26" text-anchor="middle" fill="#e2e8f0" font-size="14" font-weight="600">Monthly Streaming Revenue (Jan–Jun)</text>
  <!-- Subtitle badge -->
  <rect x="200" y="34" width="220" height="20" rx="4" fill="#0f2a1a"/>
  <text x="310" y="48" text-anchor="middle" fill="#4ade80" font-size="11" font-weight="600">Chart B — Y-axis starts at $0</text>

  <!-- Grid lines -->
  <line x1="90" y1="320.0" x2="570" y2="320.0" stroke="#2a3044" stroke-width="1"/>
  <line x1="90" y1="269.0" x2="570" y2="269.0" stroke="#2a3044" stroke-width="1"/>
  <line x1="90" y1="218.0" x2="570" y2="218.0" stroke="#2a3044" stroke-width="1"/>
  <line x1="90" y1="167.0" x2="570" y2="167.0" stroke="#2a3044" stroke-width="1"/>
  <line x1="90" y1="116.0" x2="570" y2="116.0" stroke="#2a3044" stroke-width="1"/>
  <line x1="90" y1="65.0" x2="570" y2="65.0" stroke="#2a3044" stroke-width="1"/>

  <!-- Fill area under line -->
  <polygon points="90,320 90,110.90000000000002 186,108.34999999999998 282,103.25 378,100.70000000000002 474,98.15 570,93.04999999999998 570,320" fill="rgba(96,165,250,0.10)"/>

  <!-- Line -->
  <polyline points="90,110.90000000000002 186,108.34999999999998 282,103.25 378,100.70000000000002 474,98.15 570,93.04999999999998" fill="none" stroke="#60a5fa" stroke-width="2.5" stroke-linejoin="round" stroke-linecap="round"/>

  <!-- Dots -->
  <circle cx="90.0" cy="110.9" r="4.5" fill="#60a5fa" stroke="#1a1f2e" stroke-width="1.5"/>
  <circle cx="186.0" cy="108.3" r="4.5" fill="#60a5fa" stroke="#1a1f2e" stroke-width="1.5"/>
  <circle cx="282.0" cy="103.3" r="4.5" fill="#60a5fa" stroke="#1a1f2e" stroke-width="1.5"/>
  <circle cx="378.0" cy="100.7" r="4.5" fill="#60a5fa" stroke="#1a1f2e" stroke-width="1.5"/>
  <circle cx="474.0" cy="98.2" r="4.5" fill="#60a5fa" stroke="#1a1f2e" stroke-width="1.5"/>
  <circle cx="570.0" cy="93.0" r="4.5" fill="#60a5fa" stroke="#1a1f2e" stroke-width="1.5"/>

  <!-- Axes -->
  <line x1="90" y1="320" x2="580" y2="320" stroke="#475569" stroke-width="1.5"/>
  <line x1="90" y1="60" x2="90" y2="320" stroke="#475569" stroke-width="1.5"/>

  <!-- Y-axis labels -->
  <text x="82" y="324.0" text-anchor="end" fill="#94a3b8" font-size="11">$0M</text>
  <text x="82" y="273.0" text-anchor="end" fill="#94a3b8" font-size="11">$2M</text>
  <text x="82" y="222.0" text-anchor="end" fill="#94a3b8" font-size="11">$4M</text>
  <text x="82" y="171.0" text-anchor="end" fill="#94a3b8" font-size="11">$6M</text>
  <text x="82" y="120.0" text-anchor="end" fill="#94a3b8" font-size="11">$8M</text>
  <text x="82" y="69.0" text-anchor="end" fill="#94a3b8" font-size="11">$10M</text>

  <!-- X-axis labels -->
  <text x="90" y="338" text-anchor="middle" fill="#94a3b8" font-size="12">Jan</text>
  <text x="186" y="338" text-anchor="middle" fill="#94a3b8" font-size="12">Feb</text>
  <text x="282" y="338" text-anchor="middle" fill="#94a3b8" font-size="12">Mar</text>
  <text x="378" y="338" text-anchor="middle" fill="#94a3b8" font-size="12">Apr</text>
  <text x="474" y="338" text-anchor="middle" fill="#94a3b8" font-size="12">May</text>
  <text x="570" y="338" text-anchor="middle" fill="#94a3b8" font-size="12">Jun</text>

  <!-- Y-axis title -->
  <text x="18" y="192.5" text-anchor="middle" fill="#64748b" font-size="11" transform="rotate(-90 18 192.5)">Revenue</text>

  <!-- ✓ annotation -->
  <text x="310" y="390" text-anchor="middle" fill="#4ade80" font-size="11">✓ Honest baseline — 9% growth ($700K) looks like what it actually is</text>
</svg>